<?xml version="1.0" encoding="UTF-8" standalone="no"?>
<svg
   xmlns:dc="http://purl.org/dc/elements/1.1/"
   xmlns:cc="http://creativecommons.org/ns#"
   xmlns:rdf="http://www.w3.org/1999/02/22-rdf-syntax-ns#"
   xmlns:svg="http://www.w3.org/2000/svg"
   xmlns="http://www.w3.org/2000/svg"
   xmlns:sodipodi="http://sodipodi.sourceforge.net/DTD/sodipodi-0.dtd"
   xmlns:inkscape="http://www.inkscape.org/namespaces/inkscape"
   width="256px"
   height="131px"
   viewBox="0 0 256 131"
   version="1.1"
   preserveAspectRatio="xMidYMid"
   id="svg18"
   sodipodi:docname="materialize-seeklogo.com.svg"
   inkscape:version="0.92.3 (unknown)">
  <metadata
     id="metadata24">
    <rdf:RDF>
      <cc:Work
         rdf:about="">
        <dc:format>image/svg+xml</dc:format>
        <dc:type
           rdf:resource="http://purl.org/dc/dcmitype/StillImage" />
      </cc:Work>
    </rdf:RDF>
  </metadata>
  <defs
     id="defs22" />
  <sodipodi:namedview
     pagecolor="#ffffff"
     bordercolor="#666666"
     borderopacity="1"
     objecttolerance="10"
     gridtolerance="10"
     guidetolerance="10"
     inkscape:pageopacity="0"
     inkscape:pageshadow="2"
     inkscape:window-width="1323"
     inkscape:window-height="747"
     id="namedview20"
     showgrid="false"
     inkscape:zoom="2.9404183"
     inkscape:cx="116.14785"
     inkscape:cy="70.92459"
     inkscape:window-x="43"
     inkscape:window-y="21"
     inkscape:window-maximized="1"
     inkscape:current-layer="svg18" />
  <path
     d="m 63.181665,4.1997587 c 0.926417,-1.5749095 2.13076,-3.0880579 3.860072,-3.82919175 0.710253,-0.12352232 1.420507,-0.0617612 2.13076,-0.0617612 h 34.956813 c -1.01906,0.86465625 -2.00724,1.76019305 -2.68661,2.93365505 -1.791072,2.933655 -2.995414,6.2069964 -4.107115,9.4803382 -3.149819,9.881785 -5.34234,20.041495 -7.4731,30.201206 -0.957298,4.601206 -1.883715,9.233293 -2.748372,13.834499 -2.655729,15.069723 -5.404101,30.108565 -8.831845,45.023886 -1.636671,6.88637 -3.304222,13.77274 -5.83643,20.41206 -1.173462,2.74837 -2.316043,5.68203 -4.570325,7.72015 -0.52497,0.4632 -1.04994,1.04994 -1.791074,0.95729 H 35.20386 c -2.099879,-0.0618 -4.168878,0.12353 -6.268758,-0.0926 1.389627,-1.08082 2.62485,-2.3778 3.427745,-3.92183 2.316043,-4.41592 3.76743,-9.20241 5.157056,-13.95802 2.161641,-7.65839 3.890954,-15.409412 5.527624,-23.160437 1.019059,-5.095296 2.223402,-10.159711 2.964536,-15.285887 0.833775,-5.712907 2.099879,-11.364053 3.118938,-17.04608 1.60579,-8.368637 3.304222,-16.737273 5.187938,-25.044149 1.513148,-6.484922 3.057177,-12.938963 5.126176,-19.269481 1.019059,-3.057178 2.130759,-6.0834746 3.73655,-8.8936073 z"
     id="path2"
     inkscape:connector-curvature="0"
     style="fill:#eb7077;stroke:#eb7077;stroke-width:0.09375" />
  <path
     d="m 104.12931,0.30880579 c 0.89554,0 1.79108,-0.0308806 2.68661,0 1.97636,1.04993971 3.64391,2.71749091 4.57033,4.78648971 1.23522,2.346924 2.25428,4.8173704 3.1807,7.3495775 3.08806,9.542099 5.18794,19.362123 7.28782,29.151267 1.79107,8.770084 3.4895,17.571049 5.09529,26.402895 0.12352,0.463209 -0.0309,1.111701 0.58673,1.235223 -2.2234,11.611098 -4.41592,23.253076 -7.19517,34.771532 -1.51315,6.207 -3.11894,12.38311 -5.4041,18.37394 -1.23523,2.99542 -2.50133,6.26876 -5.12618,8.39952 -1.66755,0.37057 -2.87189,-0.89554 -3.89095,-2.03812 -1.7602,-2.25428 -2.84102,-4.91001 -3.89096,-7.56574 -3.489502,-9.51122 -5.620262,-19.42388 -7.781903,-29.305667 -1.636671,-7.689265 -3.088058,-15.44029 -4.601206,-23.160435 -0.679373,-3.921833 -1.60579,-7.781906 -2.13076,-11.703739 -0.09264,-0.06176 -0.308806,-0.185284 -0.401448,-0.247045 0.864657,-4.601206 1.791074,-9.233293 2.748372,-13.834499 2.13076,-10.159711 4.323281,-20.319421 7.4731,-30.201206 1.111701,-3.2733418 2.316043,-6.5466832 4.107115,-9.4803382 0.67937,-1.173462 1.66755,-2.0689988 2.68661,-2.93365501 z"
     id="path4"
     inkscape:connector-curvature="0"
     style="fill:#eb7077;stroke:#f6a2ad;stroke-width:0.09375;fill-opacity:1;opacity:0.8" />
  <path
     d="m 142.76092,5.651146 c 1.1117,-2.13076 2.47044,-4.5085646 4.87913,-5.31145963 12.25959,-0.0617612 24.51918,-0.0308806 36.77877,-0.0308806 -1.14258,1.14258143 -2.34693,2.28516283 -3.11894,3.73655003 -2.37781,4.26152 -3.76743,8.9862482 -5.18794,13.6492162 -3.64391,12.846321 -6.20699,25.970567 -8.64656,39.094813 -2.25428,12.938962 -4.66297,25.877925 -7.41134,38.755126 -1.42051,6.484919 -2.90277,12.938959 -4.78649,19.331239 -1.20434,3.95272 -2.47045,7.93631 -4.4468,11.6111 -0.9573,1.66755 -2.069,3.48951 -3.89095,4.35416 -11.70375,0.0926 -23.43837,0 -35.1421,0.0309 -0.6485,0 -1.32787,0 -1.97636,-0.0926 2.62485,-2.13076 3.89095,-5.4041 5.12618,-8.39952 2.28516,-5.99083 3.89095,-12.16694 5.4041,-18.37394 2.77925,-11.518456 4.97177,-23.160434 7.19517,-34.771532 2.68661,-14.977081 5.49674,-29.954162 9.07889,-44.745959 1.66755,-6.39228 3.27334,-12.877201 6.14524,-18.837153 z"
     id="path6"
     inkscape:connector-curvature="0"
     style="fill:#eb7077;stroke:#eb7077;stroke-width:0.09375" />
  <path
     d="m 184.41882,0.30880579 c 0.98818,0 2.00723,-0.0308806 2.99541,0 1.60579,0.83377561 2.74838,2.25428231 3.76743,3.70566951 1.66756,2.6557298 2.7175,5.6511459 3.79832,8.5848007 2.56308,7.874548 4.47768,15.96526 6.23787,24.055971 2.34693,10.900845 4.38504,21.86345 6.39228,32.826056 0.49409,2.624849 0.98818,5.280579 1.29699,7.936309 0.12352,0.123522 0.37056,0.370566 0.46321,0.463208 -1.11171,1.544029 -1.54403,3.396864 -2.16165,5.157057 -1.94547,6.268757 -3.21158,12.753679 -4.2924,19.207723 -0.83377,5.06441 -1.97635,10.09795 -3.55126,14.97708 -1.17346,3.61303 -2.59397,7.19517 -4.9409,10.22147 -1.1117,1.45139 -2.62484,2.56309 -4.2924,3.30422 -2.56308,0.27793 -4.07623,-2.19252 -5.31146,-4.01447 -2.56308,-4.47769 -3.95271,-9.48034 -5.43498,-14.35947 -4.87913,-18.065142 -8.05983,-36.562609 -11.48757,-54.936553 -0.0309,-0.277925 -0.18529,-0.52497 -0.43233,-0.648492 2.43957,-13.124246 5.00265,-26.248492 8.64656,-39.094813 1.42051,-4.662968 2.81013,-9.3876962 5.18794,-13.6492162 0.77201,-1.4513872 1.97636,-2.5939686 3.11894,-3.73655001 z"
     id="path8"
     inkscape:connector-curvature="0"
     style="fill:#eb7077;stroke:#f6a2ad;stroke-width:0.09375;fill-opacity:1;opacity:0.8" />
  <path
     d="M 0.03088058,70.562123 C 0.83377563,70.500362 1.6366707,70.37684 2.4704463,70.37684 H 36.130277 c 1.420507,0.185283 2.902775,0.06176 4.26152,0.679372 1.976357,0.802895 3.73655,2.161641 5.033535,3.860073 0.154403,-0.09264 0.432328,-0.339687 0.586731,-0.463209 -0.741134,5.126176 -1.945477,10.190591 -2.964536,15.285887 -1.63667,7.751025 -3.365983,15.502047 -5.527624,23.160437 -1.389626,4.75561 -2.841013,9.5421 -5.157056,13.95802 -0.802895,1.54403 -2.038118,2.84101 -3.427745,3.92183 -0.524969,0.0926 -0.926417,-0.27792 -1.358745,-0.55585 -1.451387,-0.92642 -2.285163,-2.53221 -3.1807,-3.98359 C 20.165018,116.60507 19.701809,105.95127 17.07696,95.884198 15.749095,90.850663 14.112425,85.84801 11.703739,81.215923 10.221472,78.436671 8.3995175,75.780941 6.0217129,73.650181 4.2615199,72.229674 2.2234017,71.087093 0.03088058,70.562123 Z"
     id="path10"
     inkscape:connector-curvature="0"
     style="fill:#eb7077;stroke:#f6a2ad;stroke-width:0.09375;fill-opacity:1;opacity:0.8" />
  <path
     d="m 212.08782,73.773703 c 1.94547,-2.192521 4.84825,-3.582147 7.7819,-3.458625 h 25.32208 c 3.52038,0.06176 7.07165,-0.123522 10.59204,0.09264 -1.04994,0.710254 -2.31605,0.988179 -3.42775,1.57491 -3.86007,1.760193 -7.16429,4.693848 -9.26417,8.368637 -3.36599,5.86731 -4.53945,12.599276 -5.52763,19.20772 -0.98817,6.484925 -0.95729,13.186005 -3.05717,19.485645 -1.42051,4.41593 -3.58215,8.86273 -7.3187,11.7655 -11.6111,0.12352 -23.2222,0.0309 -34.80241,0.0618 -0.77202,0 -1.51315,0.0309 -2.25429,-0.12352 1.66756,-0.74113 3.1807,-1.85283 4.2924,-3.30422 2.34693,-3.0263 3.76744,-6.60844 4.9409,-10.22147 1.57491,-4.87913 2.71749,-9.91267 3.55126,-14.97708 1.08082,-6.454046 2.34693,-12.938968 4.2924,-19.207725 0.61762,-1.760193 1.04994,-3.613028 2.16165,-5.157057 0.92641,-1.358745 1.54402,-2.933655 2.71749,-4.107117 z"
     id="path12"
     inkscape:connector-curvature="0"
     style="fill:#eb7077;stroke:#eb7077;stroke-width:0.09375" />
</svg>
