<?xml version="1.0" encoding="UTF-8" standalone="no"?>
<svg
   xmlns:dc="http://purl.org/dc/elements/1.1/"
   xmlns:cc="http://creativecommons.org/ns#"
   xmlns:rdf="http://www.w3.org/1999/02/22-rdf-syntax-ns#"
   xmlns:svg="http://www.w3.org/2000/svg"
   xmlns="http://www.w3.org/2000/svg"
   viewBox="0 0 549 125.10667"
   height="125.10667"
   width="549"
   xml:space="preserve"
   id="svg2"
   version="1.1"><metadata
     id="metadata8"><rdf:RDF><cc:Work
         rdf:about=""><dc:format>image/svg+xml</dc:format><dc:type
           rdf:resource="http://purl.org/dc/dcmitype/StillImage" /><dc:title></dc:title></cc:Work></rdf:RDF></metadata><defs
     id="defs6" /><g
     transform="matrix(1.3333333,0,0,-1.3333333,0,125.10667)"
     id="g10"><g
       transform="scale(0.1)"
       id="g12"><path
         id="path14"
         style="fill:#3a639c;fill-opacity:1;fill-rule:nonzero;stroke:none"
         d="m 1096.07,364.063 c 39.67,-42.208 95.36,-71.7 156.96,-71.7 74.26,0.821 126.6,28.672 126.6,79.278 0,118.164 -341.79,4.257 -341.79,220.293 0,94.531 98.72,159.492 219.39,159.492 87.79,0 158.69,-27.832 210.99,-81.016 l -72.56,-64.961 c -48.14,47.246 -91.97,63.301 -143.45,63.301 -81.04,0 -111.41,-39.687 -111.41,-71.758 0,-118.984 341.8,0 341.8,-220.254 0,-110.586 -112.23,-177.187 -233.77,-177.187 -74.26,0 -160.35,27.851 -227.01,97.851 l 74.25,66.661" /><path
         id="path16"
         style="fill:#3a639c;fill-opacity:1;fill-rule:nonzero;stroke:none"
         d="m 1521.43,740.48 h 87.71 V 567.441 h 1.68 c 24.49,38.008 69.22,62.481 124.92,62.481 86.1,0 158.69,-71.758 158.69,-173.027 V 210.508 h -87.79 V 437.48 c 0,74.297 -38.79,104.688 -97.03,104.688 -56.52,0 -100.47,-36.328 -100.47,-102.988 V 210.508 h -87.71 V 740.48" /><path
         id="path18"
         style="fill:#3a639c;fill-opacity:1;fill-rule:nonzero;stroke:none"
         d="m 2265.76,456.895 c -18.58,62.46 -65,95.371 -120.71,95.371 -55.74,0 -101.26,-34.59 -115.62,-95.371 z m 80.99,-157.832 c -48.98,-61.563 -116.46,-98.731 -189.86,-99.512 -142.65,0 -225.35,107.109 -225.35,215.156 0,108.008 82.7,215.215 225.35,215.215 85.19,0 211.82,-70.059 211.82,-229.57 v -16.055 h -339.28 c 5.06,-62.442 63.3,-107.149 124.88,-107.149 47.27,0 87.77,22.813 118.17,63.262 l 74.27,-41.347" /><path
         id="path20"
         style="fill:#3a639c;fill-opacity:1;fill-rule:nonzero;stroke:none"
         d="m 2405.81,618.965 h 82.72 v -44.746 h 1.68 c 14.35,33.789 44.73,55.703 80.19,55.703 19.44,0 36.33,-5.078 48.09,-12.656 l -31.27,-86.934 c -8.38,6.758 -24.41,11.836 -32.85,11.836 -32.07,0 -60.76,-24.492 -60.76,-61.641 V 210.508 h -87.8 v 408.457" /><path
         id="path22"
         style="fill:#3a639c;fill-opacity:1;fill-rule:nonzero;stroke:none"
         d="m 2572.87,740.48 h 102.98 l 119.83,-313.957 120.74,285.235 122.36,-285.235 118.13,313.957 H 3260.7 L 3038.78,199.551 2916.42,506.68 2788.96,199.551 2572.87,740.48" /><path
         id="path24"
         style="fill:#3a639c;fill-opacity:1;fill-rule:nonzero;stroke:none"
         d="m 3541.93,456.895 c -18.6,62.46 -65.02,95.371 -120.72,95.371 -55.67,0 -101.27,-34.59 -115.63,-95.371 z m 80.99,-157.832 c -48.96,-61.563 -116.48,-98.731 -189.88,-99.512 -142.64,0 -225.33,107.109 -225.33,215.156 0,108.008 82.69,215.215 225.33,215.215 85.26,0 211.78,-70.059 211.78,-229.57 v -16.055 h -339.24 c 5.02,-62.442 63.32,-107.149 124.88,-107.149 47.27,0 87.84,22.813 118.17,63.262 l 74.29,-41.347" /><path
         id="path26"
         style="fill:#3a639c;fill-opacity:1;fill-rule:nonzero;stroke:none"
         d="m 3897.24,547.188 c -73.48,0 -127.48,-56.524 -127.48,-132.481 0,-75.957 54,-132.5 127.48,-132.5 73.38,0 127.38,56.543 127.38,132.5 0,75.957 -54,132.481 -127.38,132.481 z M 3681.99,740.48 h 87.77 V 569.141 h 1.7 c 21.11,33.769 75.94,60.781 133.34,60.781 106.33,0 212.66,-78.516 212.66,-215.215 0,-136.699 -106.33,-215.156 -212.66,-215.156 -57.4,0 -112.23,26.933 -133.34,60.742 h -1.7 v -49.785 h -87.77 V 740.48" /><path
         id="path28"
         style="fill:#3a639c;fill-opacity:1;fill-rule:nonzero;stroke:none"
         d="m 470.078,938.262 c 0,0 -121.777,-73.321 -193.613,-127.403 0,0 117.07,-96.796 209.433,-141.562 0,0 79.153,-42.266 159.063,-41.699 0,0 78.418,-1.387 149.746,56.699 0,0 -73.887,91.211 -164.473,151.203 0,0 -113.933,76.395 -160.156,102.762" /><path
         id="path30"
         style="fill:#6ea5de;fill-opacity:1;fill-rule:nonzero;stroke:none"
         d="m 938.789,468.77 c 0,0 -72.961,121.992 -126.816,194.023 0,0 -97.129,-116.816 -142.188,-209.043 0,0 -42.519,-78.984 -42.168,-158.906 0,0 -1.621,-78.438 56.172,-149.922 0,0 91.484,73.613 151.746,164.023 0,0 76.731,113.711 103.254,159.825" /><path
         id="path32"
         style="fill:#3a639c;fill-opacity:1;fill-rule:nonzero;stroke:none"
         d="m 468.816,0 c 0,0 121.789,73.3203 193.625,127.422 0,0 -117.082,96.777 -209.433,141.543 0,0 -79.16,42.285 -159.063,41.699 0,0 -78.418,1.387 -149.757,-56.68 0,0 73.898,-91.23 164.484,-151.211 0,0 113.926,-76.4253 160.144,-102.773" /><path
         id="path34"
         style="fill:#6ea5de;fill-opacity:1;fill-rule:nonzero;stroke:none"
         d="m 0,469.707 c 0,0 72.8242,-122.09 126.563,-194.18 0,0 97.324,116.641 142.441,208.809 0,0 42.676,78.965 42.461,158.867 0,0 1.699,78.457 -56.027,150.02 0,0 -91.559,-73.496 -151.922,-163.828 0,0 -76.9535,-113.614 -103.516,-159.688" /></g></g></svg>